<svg width="46" height="58" viewBox="0 0 46 58" fill="none" xmlns="http://www.w3.org/2000/svg">
<path id="Vector" d="M22.9772 0.462646C28.9226 0.46966 34.6224 2.83455 38.8264 7.03855C43.0304 11.2425 45.3953 16.9424 45.4023 22.8877C45.4094 27.7463 43.8224 32.473 40.8847 36.3428C40.8847 36.3428 40.2731 37.148 40.1732 37.2642L22.9772 57.5447L5.77306 37.2541C5.68336 37.146 5.06973 36.3428 5.06973 36.3428L5.06769 36.3367C2.13141 32.4686 0.545113 27.744 0.552082 22.8877C0.559097 16.9424 2.92399 11.2425 7.12799 7.03855C11.332 2.83455 17.0318 0.46966 22.9772 0.462646ZM22.9772 31.0423C24.59 31.0423 26.1666 30.564 27.5076 29.668C28.8487 28.772 29.8939 27.4984 30.5111 26.0084C31.1283 24.5183 31.2897 22.8787 30.9751 21.2969C30.6605 19.715 29.8838 18.262 28.7434 17.1216C27.6029 15.9811 26.1499 15.2045 24.5681 14.8898C22.9862 14.5752 21.3466 14.7367 19.8566 15.3539C18.3665 15.9711 17.0929 17.0163 16.1969 18.3573C15.3009 19.6983 14.8226 21.2749 14.8226 22.8877C14.8253 25.0496 15.6853 27.1222 17.214 28.6509C18.7427 30.1796 20.8153 31.0396 22.9772 31.0423Z" fill="#75BF7A"/>
</svg>
